<svg version="1.1" xmlns="http://www.w3.org/2000/svg" xmlns:xlink="http://www.w3.org/1999/xlink" width="100" height="100">
	<defs>
		<mask id="cut-off-eye">
			<rect x="27" y="25" width="46" height="40" stroke="white" stroke-width="4" fill="white" rx="2"/>
			<circle cx="40" cy="25" r="8" stroke-width="2" fill="black"/>
			<!-- Mouth -->
			<rect x="40" y="55" width="20" height="4" stroke="black" stroke-width="1" fill="black" rx="2"/>
		</mask>
	</defs>
	<!-- Feet -->
	<circle cx="14" cy="100" r="12" stroke="orange" stroke-width="4" fill="orange"/>
	<circle cx="86" cy="100" r="12" stroke="orange" stroke-width="4" fill="orange"/>
	<!-- Shins -->
	<line x1="14" y1="80" x2="14" y2="88" stroke="orange" stroke-width="6"/>
	<line x1="86" y1="80" x2="86" y2="88" stroke="orange" stroke-width="6"/>
	<!-- Knees -->
	<circle cx="14" cy="75" r="5" stroke="orange" stroke-width="4" fill="none"/>
	<circle cx="86" cy="75" r="5" stroke="orange" stroke-width="4" fill="none"/>
	<!-- Hips -->
	<line x1="17" y1="72" x2="28" y2="64" stroke="orange" stroke-width="6"/>
	<line x1="83" y1="72" x2="72" y2="64" stroke="orange" stroke-width="6"/>
	<!-- Body -->
	<rect x="27" y="25" width="46" height="40" stroke="orange" stroke-width="4" fill="orange" rx="2" mask="url(#cut-off-eye)"/>
	<!-- Eye -->
	<circle cx="40" cy="25" r="8" stroke="orange" stroke-width="2" fill="none"/>
	<circle cx="40" cy="25" r="4" stroke="orange" stroke-width="1" fill="orange"/>
	<!-- Antenna -->
	<line x1="60" y1="25" x2="60" y2="5" stroke="orange" stroke-width="4"/>
	<circle cx="60" cy="5" r="4" stroke="orange" stroke-width="1" fill="orange"/>
</svg>

